#!OML:ASF G:\JayActor3\Patient Classification 1\Patient 1\Session 6\male.ASF
:FULLY-SPECIFIED
:DEGREES
2922
root -4.54534 16.7678 -3.58846 -9.55871 -76.8434 9.55825
lowerback 7.62664 -1.73239 5.76426
upperback -4.22572 -1.45978 3.64967
thorax -8.84444 -0.960589 0.875797
lowerneck 7.21923 -5.85897 2.66485
upperneck -10.2887 -8.01675 -3.40252
head -4.50972 -3.8761 -0.979376
rclavicle -2.16675e-014 -2.38542e-014
rhumerus -44.5531 11.0019 -77.8068
rradius 38.172
rwrist 4.87394
rhand -12.5068 -2.80608
rfingers 7.12502
rthumb 13.5686 -32.3439
lclavicle -2.16675e-014 -2.38542e-014
lhumerus -49.2743 -9.85447 87.6888
lradius 39.6147
lwrist 17.4325
lhand 8.99967 6.02651
lfingers 7.12502
lthumb 34.177 32.7708
rfemur -8.82216 -2.58757 21.6554
rtibia 29.2197
rfoot -24.8762 -18.2689
rtoes 8.84777
lfemur -8.38582 5.23939 -10.3145
ltibia 15.4831
lfoot -1.11737 6.86949
ltoes -7.62672
2923
root -4.53448 16.7698 -3.59702 -9.54008 -76.5805 9.55946
lowerback 7.65822 -1.73294 5.78577
upperback -4.23942 -1.45163 3.70081
thorax -8.87741 -0.957196 0.919033
lowerneck 7.25319 -5.94295 2.65372
upperneck -10.2903 -8.13359 -3.42864
head -4.52018 -3.93117 -0.976602
rclavicle -1.68967e-014 3.33958e-014
rhumerus -44.4884 10.9595 -77.6551
rradius 38.175
rwrist 4.8713
rhand -12.5944 -2.81142
rfingers 7.12502
rthumb 13.4841 -32.3549
lclavicle -1.68967e-014 3.33958e-014
lhumerus -49.4809 -9.80702 87.8123
lradius 39.7762
lwrist 17.4261
lhand 9.12529 6.19257
lfingers 7.12502
lthumb 34.2962 32.9101
rfemur -8.87292 -2.65458 21.6405
rtibia 29.2227
rfoot -24.9035 -18.4471
rtoes 8.77834
lfemur -8.54681 5.51099 -10.4248
ltibia 15.918
lfoot -1.59155 7.18291
ltoes -8.14506
2924
root -4.52342 16.7719 -3.6061 -9.50808 -76.3058 9.54603
lowerback 7.68766 -1.73723 5.79531
upperback -4.25154 -1.45005 3.75123
thorax -8.90721 -0.956202 0.96904
lowerneck 7.28055 -6.02896 2.64504
upperneck -10.2895 -8.25217 -3.44846
head -4.52867 -3.98764 -0.972385
rclavicle 3.02153e-014 -2.54444e-014
rhumerus -44.4187 10.9008 -77.5048
rradius 38.1664
rwrist 4.87611
rhand -12.6819 -2.81928
rfingers 7.12502
rthumb 13.3998 -32.3683
lclavicle 3.02153e-014 -2.54444e-014
lhumerus -49.6675 -9.76096 87.9311
lradius 39.9026
lwrist 17.4053
lhand 9.25906 6.40295
lfingers 7.12502
lthumb 34.4233 33.0917
rfemur -8.92141 -2.69963 21.6336
rtibia 29.2248
rfoot -24.9522 -18.6521
rtoes 8.73848
lfemur -8.70487 5.79356 -10.5246
ltibia 16.3841
lfoot -2.02849 7.42466
ltoes -8.43481
2925
root -4.51223 16.7737 -3.61488 -9.47732 -76.0242 9.527
lowerback 7.71626 -1.74506 5.80203
upperback -4.25972 -1.45393 3.79806
thorax -8.93235 -0.957621 1.01746
lowerneck 7.30974 -6.11649 2.6347
upperneck -10.2927 -8.37185 -3.45774
head -4.53825 -4.04509 -0.964478
rclavicle -1.80894e-014 2.38542e-014
rhumerus -44.3468 10.8277 -77.3572
rradius 38.1495
rwrist 4.88549
rhand -12.7621 -2.83083
rfingers 7.12502
rthumb 13.3225 -32.385
lclavicle -1.80894e-014 2.38542e-014
lhumerus -49.8369 -9.71268 88.0413
lradius 39.9964
lwrist 17.3727
lhand 9.38394 6.60127
lfingers 7.12502
lthumb 34.5418 33.2631
rfemur -8.96189 -2.73786 21.6271
rtibia 29.2288
rfoot -25.0154 -18.8661
rtoes 8.7234
lfemur -8.85376 6.10034 -10.6207
ltibia 16.8778
lfoot -2.42344 7.58199
ltoes -8.66892
2926
root -4.50097 16.7751 -3.62349 -9.43279 -75.7374 9.48644
lowerback 7.74603 -1.75589 5.80926
upperback -4.26565 -1.4619 3.84205
thorax -8.95593 -0.961043 1.06318
lowerneck 7.34672 -6.20635 2.6269
upperneck -10.3012 -8.49372 -3.46143
head -4.55065 -4.10384 -0.954732
rclavicle -2.78299e-015 1.27222e-014
rhumerus -44.2765 10.7366 -77.212
rradius 38.125
rwrist 4.90219
rhand -12.8265 -2.83667
rfingers 7.12502
rthumb 13.2605 -32.3949
lclavicle -2.78299e-015 1.27222e-014
lhumerus -49.9958 -9.65956 88.1409
lradius 40.0654
lwrist 17.3317
lhand 9.48443 6.78862
lfingers 7.12502
lthumb 34.6372 33.4286
rfemur -8.99542 -2.76432 21.6269
rtibia 29.2376
rfoot -25.092 -19.0941
rtoes 8.7143
lfemur -8.9941 6.4316 -10.7093
ltibia 17.3958
lfoot -2.78749 7.64732
ltoes -8.86334
2927
root -4.48953 16.7761 -3.63184 -9.40412 -75.4465 9.45436
lowerback 7.77886 -1.76811 5.81226
upperback -4.26787 -1.47231 3.88095
thorax -8.97728 -0.965393 1.10619
lowerneck 7.37868 -6.29786 2.61907
upperneck -10.3071 -8.6171 -3.45917
head -4.5612 -4.16373 -0.94324
rclavicle 2.46493e-014 -6.36111e-015
rhumerus -44.2059 10.6265 -77.0682
rradius 38.0951
rwrist 4.92158
rhand -12.8726 -2.84042
rfingers 7.12502
rthumb 13.216 -32.4015
lclavicle 2.46493e-014 -6.36111e-015
lhumerus -50.1448 -9.60619 88.2323
lradius 40.1184
lwrist 17.2908
lhand 9.55757 6.96579
lfingers 7.12502
lthumb 34.7066 33.5899
rfemur -9.02299 -2.77978 21.6242
rtibia 29.2537
rfoot -25.1835 -19.3288
rtoes 8.72888
lfemur -9.12525 6.7775 -10.7981
ltibia 17.9375
lfoot -3.13431 7.63364
ltoes -9.06437
2928
root -4.47802 16.7768 -3.63993 -9.40994 -75.1512 9.44913
lowerback 7.81469 -1.78179 5.80741
upperback -4.26595 -1.48585 3.91208
thorax -8.99583 -0.970826 1.14569
lowerneck 7.41183 -6.38929 2.60982
upperneck -10.3165 -8.73941 -3.44696
head -4.57243 -4.22354 -0.928446
rclavicle -3.27995e-014 -1.59028e-014
rhumerus -44.1351 10.4957 -76.9277
rradius 38.061
rwrist 4.94525
rhand -12.9011 -2.83848
rfingers 7.12502
rthumb 13.1885 -32.4013
lclavicle -3.27995e-014 -1.59028e-014
lhumerus -50.2903 -9.55618 88.3155
lradius 40.1663
lwrist 17.2539
lhand 9.60066 7.11338
lfingers 7.12502
lthumb 34.7475 33.728
rfemur -9.04373 -2.79326 21.612
rtibia 29.2773
rfoot -25.2845 -19.565
rtoes 8.74307
lfemur -9.24782 7.13303 -10.8931
ltibia 18.5032
lfoot -3.47145 7.55199
ltoes -9.27829
2929
root -4.46646 16.7771 -3.64786 -9.41804 -74.8562 9.43996
lowerback 7.85243 -1.79503 5.80244
upperback -4.26118 -1.49902 3.93844
thorax -9.01246 -0.976103 1.18006
lowerneck 7.44814 -6.48137 2.59803
upperneck -10.3298 -8.8623 -3.42872
head -4.58501 -4.28377 -0.911162
rclavicle 1.59028e-015 -1.59028e-014
rhumerus -44.0654 10.3488 -76.7914
rradius 38.023
rwrist 4.97067
rhand -12.9085 -2.83795
rfingers 7.12502
rthumb 13.1814 -32.4013
lclavicle 1.59028e-015 -1.59028e-014
lhumerus -50.4337 -9.5125 88.3946
lradius 40.208
lwrist 17.2245
lhand 9.59836 7.18284
lfingers 7.12502
lthumb 34.7453 33.798
rfemur -9.06135 -2.8058 21.5995
rtibia 29.3081
rfoot -25.3937 -19.7971
rtoes 8.77152
lfemur -9.36342 7.49411 -10.9834
ltibia 19.0902
lfoot -3.80307 7.41096
ltoes -9.47392
2930
root -4.45492 16.7772 -3.6556 -9.42122 -74.5624 9.42103
lowerback 7.88913 -1.8085 5.79975
upperback -4.25364 -1.5127 3.96047
thorax -9.02562 -0.981781 1.20846
lowerneck 7.48188 -6.57093 2.58384
upperneck -10.3396 -8.98137 -3.40572
head -4.59558 -4.34236 -0.892447
rclavicle 3.10104e-014 -7.95139e-014
rhumerus -43.9954 10.1879 -76.6619
rradius 37.9815
rwrist 4.99504
rhand -12.9041 -2.83431
rfingers 7.12502
rthumb 13.1856 -32.3973
lclavicle 3.10104e-014 -7.95139e-014
lhumerus -50.5736 -9.48176 88.4712
lradius 40.2459
lwrist 17.2053
lhand 9.60522 7.25243
lfingers 7.12502
lthumb 34.7518 33.8661
rfemur -9.07628 -2.82298 21.5874
rtibia 29.3429
rfoot -25.5007 -20.0259
rtoes 8.78874
lfemur -9.4732 7.8485 -11.0662
ltibia 19.6986
lfoot -4.12471 7.22533
ltoes -9.63803
2931
root -4.44338 16.7772 -3.66301 -9.44994 -74.2709 9.4232
lowerback 7.92558 -1.82178 5.79276
upperback -4.2436 -1.52706 3.97674
thorax -9.03587 -0.987573 1.23309
lowerneck 7.51829 -6.65638 2.56392
upperneck -10.3485 -9.09496 -3.37847
head -4.60564 -4.39825 -0.871821
rclavicle 5.56597e-015 -2.22639e-014
rhumerus -43.9274 10.0232 -76.542
rradius 37.9398
rwrist 5.01767
rhand -12.8983 -2.83126
rfingers 7.12502
rthumb 13.1912 -32.3939
lclavicle 5.56597e-015 -2.22639e-014
lhumerus -50.6944 -9.46566 88.5469
lradius 40.2642
lwrist 17.1955
lhand 9.62801 7.3206
lfingers 7.12502
lthumb 34.7734 33.9293
rfemur -9.08654 -2.85026 21.5659
rtibia 29.3786
rfoot -25.5998 -20.2457
rtoes 8.79033
lfemur -9.5735 8.18769 -11.1487
ltibia 20.3255
lfoot -4.43499 7.00779
ltoes -9.73892
2932
root -4.43252 16.7773 -3.67097 -9.46208 -73.9916 9.40265
lowerback 7.95583 -1.83258 5.77859
upperback -4.22804 -1.53967 3.99518
thorax -9.03602 -0.991851 1.26323
lowerneck 7.55208 -6.73592 2.53893
upperneck -10.3537 -9.20082 -3.34911
head -4.6135 -4.45035 -0.850444
rclavicle 2.48481e-014 6.36111e-015
rhumerus -43.8571 9.86633 -76.4356
rradius 37.8955
rwrist 5.0337
rhand -12.8949 -2.82877
rfingers 7.12502
rthumb 13.1945 -32.3912
lclavicle 2.48481e-014 6.36111e-015
lhumerus -50.7935 -9.46583 88.6234
lradius 40.2666
lwrist 17.1969
lhand 9.64679 7.3936
lfingers 7.12502
lthumb 34.7913 33.9982
rfemur -9.09015 -2.84809 21.5576
rtibia 29.4115
rfoot -25.7093 -20.4781
rtoes 8.80812
lfemur -9.65993 8.51233 -11.2102
ltibia 20.9659
lfoot -4.71554 6.76433
ltoes -9.78429
2933
root -4.42171 16.7776 -3.67833 -9.50737 -73.7128 9.41316
lowerback 7.98201 -1.84477 5.76005
upperback -4.20929 -1.55551 4.00755
thorax -9.03032 -0.997457 1.28949
lowerneck 7.58057 -6.80985 2.51054
upperneck -10.3547 -9.29978 -3.32193
head -4.61885 -4.49895 -0.829931
rclavicle -1.74931e-014 9.54166e-015
rhumerus -43.7846 9.72436 -76.3451
rradius 37.8499
rwrist 5.04758
rhand -12.8967 -2.82905
rfingers 7.12502
rthumb 13.1928 -32.3916
lclavicle -1.74931e-014 9.54166e-015
lhumerus -50.8678 -9.48016 88.6981
lradius 40.2512
lwrist 17.2064
lhand 9.68039 7.47911
lfingers 7.12502
lthumb 34.8231 34.0763
rfemur -9.08739 -2.85971 21.5348
rtibia 29.4403
rfoot -25.8096 -20.697
rtoes 8.81843
lfemur -9.73115 8.80725 -11.2737
ltibia 21.6125
lfoot -4.95731 6.50617
ltoes -9.78564
